<?xml version="1.0" standalone="no"?>
<!DOCTYPE svg PUBLIC "-//W3C//DTD SVG 20010904//EN"
 "http://www.w3.org/TR/2001/REC-SVG-20010904/DTD/svg10.dtd">
<svg version="1.0" xmlns="http://www.w3.org/2000/svg"
 width="241.000000pt" height="241.000000pt" viewBox="0 0 241.000000 241.000000"
 preserveAspectRatio="xMidYMid meet">
<metadata>
Created by potrace 1.14, written by Peter Selinger 2001-2017
</metadata>
<g transform="translate(0.000000,241.000000) scale(0.100000,-0.100000)"
fill="#000000" stroke="none">
<path d="M0 1205 l0 -1205 1093 1 c600 0 1083 4 1072 9 -18 7 -16 8 10 12 l30
5 -31 2 c-41 1 -53 28 -16 34 20 3 17 5 -13 6 -32 2 -36 4 -20 11 18 8 18 9
-5 10 l-25 2 25 8 25 8 -28 1 c-16 1 -26 5 -22 11 3 6 0 11 -7 11 -7 1 3 5 22
9 l35 7 -40 2 c-32 2 -36 4 -20 11 18 8 18 9 -5 10 l-25 2 25 8 25 8 -28 1
c-16 1 -26 5 -22 11 3 5 0 11 -7 11 -7 1 3 5 22 9 l35 7 -38 2 c-23 0 -36 5
-32 11 3 6 0 10 -7 11 -7 1 -2 5 12 9 l25 8 -28 1 c-16 1 -26 5 -23 10 4 5 0
12 -6 14 -7 3 3 6 22 8 l35 2 -39 6 c-45 7 -59 27 -24 34 20 4 19 4 -5 6 -16
0 -26 5 -22 11 3 6 0 11 -7 11 -7 1 3 5 22 9 l35 7 -38 2 c-23 0 -36 5 -32 11
3 6 0 10 -7 11 -7 1 -2 5 12 9 l25 8 -28 1 c-16 1 -26 5 -22 11 3 5 0 11 -7
11 -7 1 3 5 22 9 l35 7 -35 2 c-20 0 -41 6 -47 12 -7 7 -46 -10 -129 -59 -277
-160 -452 -261 -491 -281 -83 -42 -80 -43 -458 182 -121 72 -226 136 -232 143
-16 16 -16 31 -1 37 10 4 10 6 1 6 -17 1 -17 28 -1 34 10 4 10 6 1 6 -17 1
-17 28 -1 34 10 4 10 6 1 6 -17 1 -17 28 -1 34 10 4 10 6 1 6 -17 1 -17 28 -1
34 10 4 10 6 1 6 -17 1 -17 28 -1 34 10 4 10 6 1 6 -17 1 -17 28 0 34 9 4 9 6
0 6 -17 1 -17 28 0 34 9 4 9 6 0 6 -17 1 -17 28 0 34 9 4 9 6 0 6 -17 1 -17
28 -1 34 10 4 10 6 1 6 -17 1 -17 28 0 34 9 4 9 6 0 6 -17 1 -17 28 -1 34 10
4 10 6 1 6 -17 1 -17 28 -1 34 10 4 10 6 1 6 -7 1 -13 7 -13 15 0 8 6 17 13
19 10 4 10 6 0 6 -17 1 -17 28 -1 34 10 4 10 6 1 6 -17 1 -17 28 -1 34 10 4
10 6 1 6 -17 1 -17 28 -1 34 10 4 10 6 1 6 -17 1 -17 28 -1 34 10 4 10 6 1 6
-17 1 -17 28 0 34 9 4 9 6 0 6 -17 1 -17 28 0 34 9 4 9 6 0 6 -17 1 -17 28 -1
34 10 4 10 6 1 6 -17 1 -17 28 0 34 9 4 9 6 0 6 -17 1 -17 28 -1 34 10 4 10 6
1 6 -17 1 -17 28 0 34 9 4 9 6 0 6 -17 1 -17 28 0 34 9 4 9 6 0 6 -17 1 -17
28 0 34 9 4 9 6 0 6 -17 1 -17 28 -1 34 10 4 10 6 1 6 -17 1 -17 48 0 54 9 4
9 6 0 6 -17 1 -17 28 0 34 9 4 9 6 0 6 -17 1 -17 28 -1 34 10 4 10 6 1 6 -17
1 -17 28 0 34 9 4 9 6 0 6 -17 1 -17 28 0 34 9 4 9 6 0 6 -17 1 -17 28 0 34 9
4 9 6 0 6 -17 1 -17 28 0 34 9 4 9 6 0 6 -17 1 -17 28 0 34 9 4 9 6 0 6 -16 1
-17 31 -2 31 5 0 8 4 5 9 -4 5 60 49 141 97 82 48 168 99 193 115 25 15 88 53
142 83 89 52 101 56 165 58 41 1 53 3 30 5 -20 2 -35 8 -32 14 4 5 0 9 -7 10
-7 1 -2 5 12 9 l25 8 -25 1 c-20 1 -22 3 -10 11 13 8 12 10 -5 11 -14 1 -10 4
10 9 l30 8 -28 1 c-16 0 -26 5 -22 11 3 6 0 11 -7 11 -7 1 3 5 22 9 19 4 -250
8 -597 9 l-633 1 0 -1205z"/>
<path d="M908 1837 c-48 -29 -97 -60 -108 -69 -20 -17 -20 -29 -20 -573 0
-534 1 -555 19 -572 28 -26 200 -123 218 -123 20 0 394 217 411 238 8 11 12
55 12 138 0 130 -8 154 -50 154 -40 0 -50 -26 -50 -134 l0 -102 -162 -92 -161
-92 -69 40 -68 41 0 504 0 504 73 42 c117 68 139 96 99 132 -28 25 -49 20
-144 -36z"/>
<path d="M1190 1784 c-102 -59 -193 -113 -202 -122 -17 -14 -18 -49 -18 -468
0 -450 0 -453 21 -468 26 -18 43 -12 147 50 124 75 112 31 112 395 l0 317 45
25 44 25 3 -131 c3 -131 3 -131 30 -146 24 -14 28 -14 47 3 20 18 21 30 21
196 0 186 -5 209 -46 212 -31 3 -225 -113 -235 -140 -5 -13 -9 -160 -9 -327
l0 -303 -34 -21 c-18 -12 -36 -21 -40 -21 -3 0 -6 165 -6 368 l0 367 43 26
c23 15 95 57 159 94 l117 67 68 -39 68 -39 3 -162 c2 -160 3 -163 26 -173 17
-8 29 -8 45 0 21 12 21 16 19 203 l-3 192 -105 63 c-58 35 -112 63 -120 63 -8
0 -98 -48 -200 -106z"/>
<path d="M1555 1131 c-19 -8 -20 -20 -25 -227 l-5 -218 -73 -41 c-94 -53 -117
-76 -108 -109 12 -49 45 -44 163 26 l108 64 3 244 c2 221 1 246 -15 258 -19
14 -20 14 -48 3z"/>
<path d="M1918 483 c7 -3 16 -2 19 1 4 3 -2 6 -13 5 -11 0 -14 -3 -6 -6z"/>
<path d="M1998 323 c7 -3 16 -2 19 1 4 3 -2 6 -13 5 -11 0 -14 -3 -6 -6z"/>
<path d="M2158 43 c7 -3 16 -2 19 1 4 3 -2 6 -13 5 -11 0 -14 -3 -6 -6z"/>
</g>
</svg>
